<?xml version="1.0" encoding="UTF-8"?>
<svg width="1800px" height="1800px" viewBox="0 0 1800 1800" version="1.1" xmlns="http://www.w3.org/2000/svg" xmlns:xlink="http://www.w3.org/1999/xlink">
    <title>画板备份 8</title>
    <g id="画板备份-8" stroke="none" stroke-width="1" fill="none" fill-rule="evenodd">
        <g id="logo优化版4" transform="translate(400, 200)">
            <rect id="矩形" x="0" y="0" width="1000" height="1000"></rect>
            <path d="M756.730375,387.215912 C836.008614,419.768886 899.534941,475.223209 899.459279,561.667729 L899.457885,561.869826 L900,561.871143 L900,562.654774 C900,649.784961 872.110449,730.398516 824.77501,796.048308 C760.653163,840.176226 683.041942,866 599.419634,866 L599.66314,866 L599.175513,866 C581.8359,865.989504 564.755131,864.868751 548,862.704688 C630.206713,849.825241 701.465447,803.926275 747.794212,738.999068 L746.94539,739.131065 C782.447618,689.288563 803.364926,628.26088 803.422705,562.35604 C803.477696,499.528367 784.567795,441.166372 752.12333,392.725666 C751.481815,391.767861 750.185147,385.800909 756.730375,387.215912 Z" id="形状结合" fill="#C70019" fill-rule="nonzero"></path>
            <path d="M499.372835,258 C509.668961,258 519.874121,258.389949 529.97438,259.1559 L500.43649,259.156234 L500.436569,259.559973 L500.338338,259.559957 C332.473928,259.559957 196.392936,395.399969 196.392936,562.967115 C196.392936,730.534261 332.473928,866.374271 500.338338,866.374271 C516.464204,866.374271 532.29676,865.120679 547.743539,862.705793 C564.605972,864.878404 581.798599,865.999008 599.252644,865.999008 C683.024585,865.999008 760.774559,840.184916 825,796.068315 C752.383884,896.579578 634.063615,962 500.43648,962 C294.739206,962 125.312471,806.982361 103,607.594521 C127.753443,410.472159 295.778621,258 499.372835,258 Z" id="形状结合" fill="#04287E" fill-rule="nonzero"></path>
            <path d="M359.08782,38.0487318 C359.400719,38.1941649 359.706496,38.320894 360.02531,38.4536828 C482.859486,90.6047549 609.168717,123.927986 735.453853,139.660247 C736.592583,139.804675 737.731314,139.949104 738.888998,140.086947 C738.999213,140.12278 739.090474,140.165198 739.194774,140.213676 C741.984787,141.510455 743.443012,144.466517 742.891647,147.273621 L741.182953,150.451043 L734.24223,163.434463 C830.279934,163.872112 885.167422,163.872315 898.904695,163.435073 C912.340942,163.007411 882.03366,193.573065 807.982849,255.132033 C806.323808,256.511206 794.266526,260.160221 789.278997,259.316207 C785.953979,258.753532 699.519811,258.7533 529.976496,259.315512 C519.877853,258.548995 509.67433,258.158757 499.379852,258.158757 C295.819882,258.158757 127.822966,410.741205 103.069669,608 C101.427684,593.284091 100.582425,578.320307 100.582425,563.159275 L100.584988,562.943009 L100,562.94475 C100,342.302179 278.80579,163.436035 499.37391,163.436035 L567.758318,163.434463 L564.290865,161.772109 C491.981752,126.991888 424.479434,89.4668583 361.170758,44.6141 L357.577573,42.0572947 C357.473273,42.008817 357.373682,41.9163463 357.255139,41.8304604 C356.488106,41.19686 356.232582,40.1544679 356.663136,39.2308331 C357.087791,38.3198509 358.106628,37.8389816 359.08782,38.0487318 Z" id="形状结合" fill="#C70019" fill-rule="nonzero"></path>
            <path d="M500,454.708696 C559.646753,454.708696 608,503.015658 608,562.605318 L607.996342,717.917241 L608,718.134782 L608,720.128742 L607.945423,720.129724 C606.908014,739.040836 591.211378,754.056522 572,754.056522 C552.788622,754.056522 537.091988,739.040836 536.054579,720.129724 L535.99934,720.128742 L536,562.517713 C536,542.654494 519.88225,526.552173 500,526.552173 C480.117749,526.552173 464,542.654494 464,562.517713 L463.997003,682.211307 C464,724.402361 439.703299,760.929214 404.31023,778.621971 L403.980555,777.962836 C400.232703,779.282204 396.200359,780 392,780 C372.117748,780 356,763.917289 356,744.07826 C356,729.617187 364.563762,717.15194 376.906954,711.456451 C386.045143,704.942824 392,694.271836 392,682.213042 L392,562.605318 C392,503.015658 440.353247,454.708696 500,454.708696 Z M509.830161,321 C638.054022,321 742,424.846481 742,552.947607 L742,620.347827 C742,640.186855 725.882251,656.269565 706,656.269565 C686.11775,656.269565 670,640.186855 670,620.347827 L670,562.680755 C670,468.882216 593.888408,392.843478 500,392.843478 C406.111592,392.843478 330,468.882216 330,562.680755 L330,620.347827 C330,640.186855 313.882251,656.269565 294,656.269565 C274.117749,656.269565 258,640.186855 258,620.347827 L258,552.945608 L258.031104,549.11193 C260.081347,422.779936 363.228215,321 490.169839,321 L509.830161,321 Z" id="形状结合" fill="#04287E" fill-rule="nonzero"></path>
        </g>
        <path d="M446.177778,1320.11538 L339,1320.11538 L339,1375.60549 L381.755556,1375.60549 L381.755556,1355.08571 L551.622222,1355.08571 L548.733333,1373.29341 L590.044444,1373.29341 L599,1320.11538 L487.2,1320.11538 L487.2,1310 L446.177778,1310 L446.177778,1320.11538 Z M404.288889,1402.48352 L404.288889,1389.18901 L360.955556,1389.18901 L360.955556,1402.48352 L339.866667,1402.48352 L339.866667,1435.43077 L360.377778,1435.43077 L360.377778,1494.1 C360.377778,1501.9033 362.688889,1505.37143 369.911111,1509.41758 L415.555556,1532.53846 L401.977778,1537.45165 C394.755556,1540.34176 387.822222,1541.4978 381.755556,1541.4978 L339.866667,1541.4978 L339.866667,1573 L400.822222,1573 C404.866667,1573 410.066667,1573 416.133333,1570.10989 L464.088889,1549.87912 L507.133333,1566.93077 C514.355556,1569.82088 521,1570.68791 528.511111,1570.68791 L598.422222,1570.68791 L598.422222,1539.18571 L546.422222,1539.18571 C538.622222,1539.18571 533.422222,1538.60769 526.777778,1536.2956 L512.622222,1531.96044 L562.888889,1512.01868 C573,1508.26154 577.044444,1502.48132 577.044444,1494.67802 L577.044444,1435.43077 L598.422222,1435.43077 L598.422222,1402.48352 L577.044444,1402.48352 L577.044444,1386.87692 L534,1386.87692 L534,1402.48352 L404.288889,1402.48352 Z M534,1435.43077 L534,1474.73626 C534,1478.2044 532.844444,1480.51648 526.777778,1483.40659 L462.933333,1510.86264 L412.666667,1484.56264 C406.022222,1481.09451 404.288889,1477.62637 404.288889,1473.58022 L404.288889,1435.43077 L534,1435.43077 Z M729.725166,1317 L729.725166,1349.50337 L883.847682,1349.50337 L883.847682,1317 L729.725166,1317 Z M671.245033,1347.20225 L658.857616,1347.20225 L658.857616,1322.46517 L624,1322.46517 L624,1562.93258 L658.857616,1562.93258 L658.857616,1383.1573 L671.245033,1383.1573 L671.245033,1573 L708.407285,1573 L708.407285,1383.1573 L721.94702,1383.1573 L721.94702,1347.20225 L708.407285,1347.20225 L708.407285,1317 L671.245033,1317 L671.245033,1347.20225 Z M882.695364,1367.33708 L729.725166,1367.33708 L729.725166,1520.3618 L859.072848,1520.3618 C875.493377,1520.3618 882.695364,1512.30787 882.695364,1492.17303 L882.695364,1367.33708 Z M766.887417,1400.12809 L845.533113,1400.12809 L845.533113,1427.45393 L766.887417,1427.45393 L766.887417,1400.12809 Z M766.887417,1460.24494 L845.533113,1460.24494 L845.533113,1480.95506 C845.533113,1484.40674 843.516556,1487.57079 840.059603,1487.57079 L766.887417,1487.57079 L766.887417,1460.24494 Z M726.268212,1538.19551 L726.268212,1570.69888 L885,1570.69888 L885,1538.19551 L726.268212,1538.19551 Z M988.793417,1560.18722 C994.53689,1567.67825 1001.71623,1572 1012.34166,1572 L1156.50284,1572 L1156.50284,1540.59529 L1088.72985,1540.59529 L1165.6924,1480.37892 L1165.6924,1447.24552 L918.723042,1447.24552 L918.723042,1478.65022 L1109.40636,1478.65022 L1031.00795,1540.59529 C1026.41317,1540.01906 1024.11578,1538.29036 1022.10556,1535.40919 L1002.29058,1512.9361 L952.896708,1512.9361 L988.793417,1560.18722 Z M939.112372,1342.37108 C936.240636,1344.67601 932.794552,1346.40471 928.199773,1346.40471 L917,1346.40471 L917,1378.96188 L942.84563,1378.96188 C951.46084,1378.96188 955.768445,1376.65695 959.214529,1374.0639 L988.219069,1348.70964 L1101.07832,1348.70964 L1120.60613,1370.03027 C1126.92395,1376.65695 1130.37003,1378.96188 1136.40068,1378.96188 L1170,1378.96188 L1170,1346.40471 L1155.92849,1346.40471 C1151.04654,1346.40471 1148.74915,1346.40471 1143.29285,1340.35426 L1121.18048,1315 L969.839955,1315 L939.112372,1342.37108 Z M993.962543,1408.92601 C997.982974,1416.70516 1005.73666,1420.73879 1014.63905,1420.73879 L1114.00114,1420.73879 L1114.00114,1389.04596 L1039.33598,1389.04596 C1035.02838,1389.04596 1031.58229,1387.60538 1030.4336,1384.72422 L1025.83882,1375.21637 L976.444949,1375.21637 L993.962543,1408.92601 Z M1316.11409,1323.40022 L1316.11409,1472.77961 L1348.88591,1472.77961 L1329.05034,1500.75219 L1311.80201,1500.75219 L1311.80201,1533.33882 L1388.55705,1533.33882 L1388.55705,1572.26974 L1425.64094,1572.26974 L1425.64094,1533.33882 L1461,1533.33882 L1461,1500.75219 L1425.64094,1500.75219 L1425.64094,1484.02632 L1388.55705,1484.02632 L1388.55705,1500.75219 L1369.00895,1500.75219 L1385.10738,1472.77961 L1424.49105,1472.77961 C1444.61409,1472.77961 1456.97539,1465.2818 1456.97539,1443.36513 L1456.97539,1323.40022 L1382.52013,1323.40022 L1384.81991,1311 L1344.8613,1311 L1341.98658,1323.40022 L1316.11409,1323.40022 Z M1267.81879,1315.61404 L1267.81879,1389.72697 L1249.99553,1389.72697 L1249.99553,1316.76754 L1214.06152,1316.76754 L1214.06152,1534.49232 C1214.06152,1537.95285 1212.91163,1539.10636 1207.73714,1539.10636 L1204,1539.10636 L1204,1574 L1214.06152,1574 C1221.24832,1574 1230.7349,1572.84649 1236.48434,1568.52083 C1244.24609,1562.75329 1249.99553,1552.08333 1249.99553,1542.56689 L1249.99553,1473.64474 L1267.81879,1473.64474 L1267.81879,1570.53947 L1302.60291,1570.53947 L1302.60291,1441.63487 L1249.99553,1441.63487 L1249.99553,1420.29496 L1309.50224,1420.29496 L1309.50224,1389.72697 L1302.60291,1389.72697 L1302.60291,1315.61404 L1267.81879,1315.61404 Z M1403.21812,1381.94079 L1403.21812,1354.83333 L1422.19128,1354.83333 L1422.19128,1381.94079 L1403.21812,1381.94079 Z M1393.1566,1441.63487 L1398.61857,1414.52741 L1422.19128,1414.52741 L1422.19128,1438.17434 C1422.19128,1439.90461 1420.75391,1441.63487 1419.02908,1441.63487 L1393.1566,1441.63487 Z M1349.17338,1381.94079 L1349.17338,1354.83333 L1367.28412,1354.83333 L1367.28412,1381.94079 L1349.17338,1381.94079 Z M1359.52237,1441.63487 L1349.17338,1441.63487 L1349.17338,1414.52741 L1364.4094,1414.52741 L1359.52237,1441.63487 Z" id="形状结合" fill="#3D3D3D" fill-rule="nonzero"></path>
    </g>
</svg>